<svg width="189" height="64" viewBox="0 0 189 64" fill="none" xmlns="http://www.w3.org/2000/svg">
<path d="M68.2911 59C68.0271 59 67.8111 58.916 67.6431 58.748C67.4751 58.58 67.3911 58.364 67.3911 58.1V34.7C67.3911 34.436 67.4751 34.22 67.6431 34.052C67.8111 33.884 68.0271 33.8 68.2911 33.8H78.0831C81.1791 33.8 83.6151 34.52 85.3911 35.96C87.1911 37.376 88.0911 39.392 88.0911 42.008C88.0911 43.712 87.6711 45.152 86.8311 46.328C86.0151 47.504 84.9351 48.392 83.5911 48.992L88.5591 57.848C88.6311 57.992 88.6671 58.124 88.6671 58.244C88.6671 58.436 88.5831 58.616 88.4151 58.784C88.2711 58.928 88.0911 59 87.8751 59H83.1231C82.6671 59 82.3311 58.892 82.1151 58.676C81.8991 58.436 81.7431 58.22 81.6471 58.028L77.5431 50.108H73.8351V58.1C73.8351 58.364 73.7511 58.58 73.5831 58.748C73.4151 58.916 73.1991 59 72.9351 59H68.2911ZM73.8351 45.032H78.0111C79.1391 45.032 79.9791 44.756 80.5311 44.204C81.1071 43.652 81.3951 42.896 81.3951 41.936C81.3951 41 81.1191 40.244 80.5671 39.668C80.0391 39.092 79.1871 38.804 78.0111 38.804H73.8351V45.032ZM90.8417 59C90.6497 59 90.4697 58.928 90.3017 58.784C90.1577 58.616 90.0857 58.436 90.0857 58.244C90.0857 58.124 90.0977 58.016 90.1217 57.92L98.5817 34.808C98.6537 34.544 98.7977 34.316 99.0137 34.124C99.2537 33.908 99.5777 33.8 99.9857 33.8H105.314C105.722 33.8 106.034 33.908 106.25 34.124C106.49 34.316 106.646 34.544 106.718 34.808L115.142 57.92C115.19 58.016 115.214 58.124 115.214 58.244C115.214 58.436 115.13 58.616 114.962 58.784C114.818 58.928 114.638 59 114.422 59H109.994C109.634 59 109.358 58.916 109.166 58.748C108.998 58.556 108.89 58.388 108.842 58.244L107.438 54.572H97.8257L96.4577 58.244C96.4097 58.388 96.3017 58.556 96.1337 58.748C95.9657 58.916 95.6777 59 95.2697 59H90.8417ZM99.3017 49.388H105.998L102.614 39.884L99.3017 49.388ZM123.247 59C122.839 59 122.515 58.892 122.275 58.676C122.035 58.46 121.867 58.208 121.771 57.92L114.427 34.88C114.379 34.76 114.355 34.652 114.355 34.556C114.355 34.364 114.427 34.196 114.571 34.052C114.739 33.884 114.931 33.8 115.147 33.8H119.611C119.995 33.8 120.295 33.908 120.511 34.124C120.727 34.34 120.859 34.544 120.907 34.736L125.983 51.368L131.095 34.736C131.167 34.544 131.299 34.34 131.491 34.124C131.707 33.908 132.007 33.8 132.391 33.8H136.855C137.071 33.8 137.251 33.884 137.395 34.052C137.563 34.196 137.647 34.364 137.647 34.556C137.647 34.652 137.623 34.76 137.575 34.88L130.231 57.92C130.135 58.208 129.967 58.46 129.727 58.676C129.511 58.892 129.187 59 128.755 59H123.247ZM137.564 59C137.372 59 137.192 58.928 137.024 58.784C136.88 58.616 136.808 58.436 136.808 58.244C136.808 58.124 136.82 58.016 136.844 57.92L145.304 34.808C145.376 34.544 145.52 34.316 145.736 34.124C145.976 33.908 146.3 33.8 146.708 33.8H152.036C152.444 33.8 152.756 33.908 152.972 34.124C153.212 34.316 153.368 34.544 153.44 34.808L161.864 57.92C161.912 58.016 161.936 58.124 161.936 58.244C161.936 58.436 161.852 58.616 161.684 58.784C161.54 58.928 161.36 59 161.144 59H156.716C156.356 59 156.08 58.916 155.888 58.748C155.72 58.556 155.612 58.388 155.564 58.244L154.16 54.572H144.548L143.18 58.244C143.132 58.388 143.024 58.556 142.856 58.748C142.688 58.916 142.4 59 141.992 59H137.564ZM146.024 49.388H152.72L149.336 39.884L146.024 49.388ZM165.674 59C165.41 59 165.194 58.916 165.026 58.748C164.858 58.58 164.774 58.364 164.774 58.1V34.7C164.774 34.436 164.858 34.22 165.026 34.052C165.194 33.884 165.41 33.8 165.674 33.8H169.49C169.898 33.8 170.186 33.896 170.354 34.088C170.546 34.256 170.666 34.388 170.714 34.484L179.498 48.344V34.7C179.498 34.436 179.582 34.22 179.75 34.052C179.918 33.884 180.134 33.8 180.398 33.8H184.718C184.982 33.8 185.198 33.884 185.366 34.052C185.534 34.22 185.618 34.436 185.618 34.7V58.1C185.618 58.34 185.534 58.556 185.366 58.748C185.198 58.916 184.982 59 184.718 59H180.866C180.482 59 180.194 58.904 180.002 58.712C179.834 58.52 179.726 58.388 179.678 58.316L170.894 44.996V58.1C170.894 58.364 170.81 58.58 170.642 58.748C170.474 58.916 170.258 59 169.994 59H165.674Z" fill="#4D5053"/>
<path d="M14.2917 20.2462L16.9927 12.7068L20.7668 2.1178C21.2108 0.889477 22.2468 0.127068 23.3938 0.0847121L40.192 0C41.376 0 42.449 0.804765 42.893 2.03309L44.151 5.50629L47.6661 15.2482L52.7351 29.2257C52.8091 29.4375 52.6611 29.6492 52.4761 29.6069C47.8511 28.4209 43.3 28.1668 39.23 28.7598C37.935 28.9715 36.714 28.1244 36.2329 26.769L32.8659 17.2813C32.7179 16.8577 32.3109 16.6883 31.9409 16.8154C25.5768 19.6109 19.6198 21.8981 15.9567 22.1946C15.2907 22.2369 14.5877 22.2793 13.8847 22.2369C13.6997 22.2369 13.5887 22.0252 13.6627 21.8557L14.2917 20.2462Z" fill="#292F36"/>
<path d="M3.00666 52.098C3.04366 51.9709 3.19166 51.8862 3.30266 51.9285C7.6687 53.5381 11.2577 54.1734 14.4028 54.1734C19.5828 54.1734 23.5049 52.4792 27.5379 50.7002C34.827 47.4811 42.3751 44.1774 59.9133 50.0225C60.0243 50.0649 60.0983 50.1496 60.1353 50.2343L63.9833 61.1198C64.0573 61.3316 63.8723 61.5434 63.6873 61.501C43.7071 53.9616 35.826 57.2654 28.1669 60.4421C23.9859 62.2211 19.6938 64 14.0328 64C10.1847 64 5.70768 63.1529 0.157624 60.9504C0.0466232 60.908 -0.0273753 60.7386 0.00962508 60.5692L3.00666 52.098Z" fill="#292F36"/>
<path d="M15.9956 26.3139C16.0326 26.1868 16.1436 26.1445 16.2546 26.1445C16.9576 26.1868 17.6236 26.2292 18.2896 26.2292C23.1736 26.2292 30.2777 23.6031 33.5708 21.8665C33.7558 21.7818 33.9778 21.9936 33.9038 22.2054C33.2378 23.9843 31.3507 28.94 30.4997 31.3119C30.2037 32.0743 29.6857 32.6673 29.0197 32.9638C24.4317 34.9545 20.0286 36.5641 13.2575 35.0816C13.1095 35.0392 12.9985 34.8698 13.0725 34.7004L15.9956 26.3139Z" fill="#292F36"/>
<path d="M7.44668 39.6029C7.48368 39.4758 7.59468 39.3911 7.70568 39.4335C10.1847 40.0265 12.3677 40.2806 14.3658 40.2806C19.5458 40.2806 23.4678 38.5864 27.5009 36.8074C33.976 33.9695 40.673 31.0046 54.3632 34.5202C54.4742 34.5625 54.5482 34.6472 54.6222 34.732L58.0632 44.4315C58.1372 44.6433 57.9892 44.8551 57.7672 44.8127C41.154 39.9841 33.236 43.4573 26.1319 46.5917C20.1748 49.2177 14.9208 51.505 4.78265 47.9047C4.63465 47.8623 4.56065 47.6929 4.63465 47.5235L7.44668 39.6029Z" fill="#292F36"/>
<path d="M73.5016 10.4184C76.9431 6.48965 83.0569 6.48965 86.4984 10.4184V10.4184C91.3906 16.0033 87.4246 24.75 80 24.75V24.75C72.5754 24.75 68.6094 16.0033 73.5016 10.4184V10.4184Z" fill="#E3660B" fill-opacity="0.75"/>
<path d="M105.11 24.2C103.857 24.2 102.79 23.9933 101.91 23.58C101.044 23.1533 100.37 22.54 99.8903 21.74C99.4103 20.9267 99.1436 19.94 99.0903 18.78C99.077 18.2333 99.0703 17.6467 99.0703 17.02C99.0703 16.3933 99.077 15.7933 99.0903 15.22C99.1436 14.0733 99.4103 13.1 99.8903 12.3C100.384 11.4867 101.07 10.8667 101.95 10.44C102.83 10.0133 103.884 9.8 105.11 9.8C106.004 9.8 106.817 9.91333 107.55 10.14C108.284 10.3667 108.917 10.6933 109.45 11.12C109.984 11.5467 110.397 12.0467 110.69 12.62C110.984 13.1933 111.144 13.8333 111.17 14.54C111.17 14.66 111.124 14.76 111.03 14.84C110.95 14.92 110.85 14.96 110.73 14.96H108.45C108.29 14.96 108.164 14.92 108.07 14.84C107.977 14.76 107.904 14.6267 107.85 14.44C107.65 13.6533 107.317 13.1133 106.85 12.82C106.384 12.5267 105.804 12.38 105.11 12.38C104.284 12.38 103.63 12.6067 103.15 13.06C102.67 13.5133 102.41 14.2667 102.37 15.32C102.33 16.4133 102.33 17.5333 102.37 18.68C102.41 19.7333 102.67 20.4867 103.15 20.94C103.63 21.3933 104.284 21.62 105.11 21.62C105.804 21.62 106.384 21.4733 106.85 21.18C107.33 20.8733 107.664 20.3333 107.85 19.56C107.904 19.36 107.977 19.2267 108.07 19.16C108.164 19.08 108.29 19.04 108.45 19.04H110.73C110.85 19.04 110.95 19.08 111.03 19.16C111.124 19.24 111.17 19.34 111.17 19.46C111.144 20.1667 110.984 20.8067 110.69 21.38C110.397 21.9533 109.984 22.4533 109.45 22.88C108.917 23.3067 108.284 23.6333 107.55 23.86C106.817 24.0867 106.004 24.2 105.11 24.2ZM113.918 24C113.771 24 113.651 23.9533 113.558 23.86C113.464 23.7667 113.418 23.6467 113.418 23.5V10.5C113.418 10.3533 113.464 10.2333 113.558 10.14C113.651 10.0467 113.771 10 113.918 10H116.178C116.324 10 116.444 10.0467 116.538 10.14C116.631 10.2333 116.678 10.3533 116.678 10.5V23.5C116.678 23.6467 116.631 23.7667 116.538 23.86C116.444 23.9533 116.324 24 116.178 24H113.918ZM123.208 24C123.062 24 122.942 23.9533 122.848 23.86C122.755 23.7667 122.708 23.6467 122.708 23.5V12.78H119.068C118.935 12.78 118.822 12.7333 118.728 12.64C118.635 12.5467 118.588 12.4333 118.588 12.3V10.5C118.588 10.3533 118.635 10.2333 118.728 10.14C118.822 10.0467 118.935 10 119.068 10H129.548C129.695 10 129.815 10.0467 129.908 10.14C130.002 10.2333 130.048 10.3533 130.048 10.5V12.3C130.048 12.4333 130.002 12.5467 129.908 12.64C129.815 12.7333 129.695 12.78 129.548 12.78H125.928V23.5C125.928 23.6467 125.882 23.7667 125.788 23.86C125.695 23.9533 125.575 24 125.428 24H123.208ZM136.112 24C135.966 24 135.846 23.9533 135.752 23.86C135.659 23.7667 135.612 23.6467 135.612 23.5V19.1L130.932 10.64C130.919 10.6 130.906 10.5667 130.892 10.54C130.879 10.5 130.872 10.46 130.872 10.42C130.872 10.3133 130.912 10.22 130.992 10.14C131.086 10.0467 131.186 10 131.292 10H133.412C133.599 10 133.746 10.0467 133.852 10.14C133.959 10.2333 134.032 10.32 134.072 10.4L137.212 15.9L140.352 10.4C140.392 10.32 140.466 10.2333 140.572 10.14C140.679 10.0467 140.826 10 141.012 10H143.132C143.239 10 143.332 10.0467 143.412 10.14C143.506 10.22 143.552 10.3133 143.552 10.42C143.552 10.46 143.546 10.5 143.532 10.54C143.519 10.5667 143.506 10.6 143.492 10.64L138.812 19.1V23.5C138.812 23.6467 138.766 23.7667 138.672 23.86C138.579 23.9533 138.459 24 138.312 24H136.112Z" fill="#4D5053"/>
</svg>
